<?xml version="1.0" encoding="UTF-8" standalone="no"?>
<!-- Created with Inkscape (http://www.inkscape.org/) -->

<svg
   version="1.1"
   id="svg1"
   width="512"
   height="512"
   viewBox="0 0 512 512"
   sodipodi:docname="my-taste-hub-logo.svg"
   inkscape:version="1.4 (86a8ad7, 2024-10-11)"
   xmlns:inkscape="http://www.inkscape.org/namespaces/inkscape"
   xmlns:sodipodi="http://sodipodi.sourceforge.net/DTD/sodipodi-0.dtd"
   xmlns="http://www.w3.org/2000/svg"
   xmlns:svg="http://www.w3.org/2000/svg">
  <defs
     id="defs1" />
  <sodipodi:namedview
     id="namedview1"
     pagecolor="#ffffff"
     bordercolor="#000000"
     borderopacity="0.25"
     inkscape:showpageshadow="2"
     inkscape:pageopacity="0.0"
     inkscape:pagecheckerboard="0"
     inkscape:deskcolor="#d1d1d1"
     inkscape:zoom="1.5097656"
     inkscape:cx="256"
     inkscape:cy="252.02587"
     inkscape:window-width="1920"
     inkscape:window-height="991"
     inkscape:window-x="-9"
     inkscape:window-y="-9"
     inkscape:window-maximized="1"
     inkscape:current-layer="g1" />
  <g
     inkscape:groupmode="layer"
     inkscape:label="Image"
     id="g1">
    <g
       id="g2"
       transform="translate(0.06773925,-0.08338189)">
      <path
         style="fill:#e0e7ec"
         d="M 231.5,510.94874 C 186.55385,506.33869 140.3893,488.80548 105.75,463.18913 L 100,458.93691 V 392.26406 325.5912 l 4.58136,8.90339 c 13.13058,25.5179 33.76976,48.33359 58.05166,64.17348 57.29611,37.37618 131.24555,37.07117 187.88138,-0.77492 39.70881,-26.53484 66.57962,-68.42478 74.02036,-115.39315 1.08478,-6.84748 1.28193,3.23708 1.36847,70 0.0556,42.9 0.26306,89.025 0.461,102.5 0.24813,16.89148 0.16982,19.6118 -0.25216,8.75965 L 425.5,448.01931 l -8,6.5321 c -35.9467,29.35094 -78.74907,48.05045 -126,55.04692 -12.22857,1.81069 -47.7237,2.60957 -60,1.35041 z M 91,503.5 c 1.291745,-1.375 2.573628,-2.5 2.848628,-2.5 0.275,0 -0.556883,1.125 -1.848628,2.5 -1.291745,1.375 -2.573628,2.5 -2.848628,2.5 -0.275,0 0.556883,-1.125 1.848628,-2.5 z m 384,0 c 1.29175,-1.375 2.57363,-2.5 2.84863,-2.5 0.275,0 -0.55688,1.125 -1.84863,2.5 -1.29175,1.375 -2.57363,2.5 -2.84863,2.5 -0.275,0 0.55688,-1.125 1.84863,-2.5 z M 42.078947,485.41667 c 0.04798,-1.16495 0.284941,-1.4019 0.604167,-0.60417 0.288871,0.72187 0.253344,1.58438 -0.07895,1.91667 -0.332292,0.33229 -0.568641,-0.25834 -0.52522,-1.3125 z m 384.000003,0 c 0.048,-1.16495 0.28494,-1.4019 0.60416,-0.60417 0.28887,0.72187 0.25335,1.58438 -0.0789,1.91667 -0.33229,0.33229 -0.56864,-0.25834 -0.52522,-1.3125 z M 42.457144,439 c 0,-22.825 0.131272,-32.1625 0.291716,-20.75 0.160444,11.4125 0.160444,30.0875 0,41.5 -0.160444,11.4125 -0.291716,2.075 -0.291716,-20.75 z M 233.73636,410.97308 C 215.85511,408.16675 195.55531,401.28855 180.43849,392.91412 140.31748,370.68786 112.47898,332.57125 102.35365,286 c -2.665692,-12.26081 -2.658264,-47.79847 0.0125,-60 3.80679,-17.39123 5.14948,-20.47413 10.68766,-24.53953 11.13434,-8.17335 19.9694,-22.99124 24.42241,-40.96047 l 2.47813,-10 8.2728,-7.78821 c 20.82906,-19.60896 45.41013,-32.70067 74.22413,-39.53125 10.14123,-2.40406 12.85557,-2.6217 33.04868,-2.64986 17.76582,-0.0248 23.63593,0.32554 30.5,1.82016 22.15644,4.82448 44.0741,14.31674 60.93801,26.39145 10.58783,7.58099 25.28404,21.62675 32.36418,30.93175 3.91451,5.14461 4.69918,6.89534 4.70601,10.5 0.0119,6.28969 1.77387,21.10339 3.60695,30.32596 3.65016,18.36454 11.8973,37.099 20.78052,47.20567 l 3.89566,4.4322 -0.61411,13.68106 c -0.96526,21.50368 -5.61461,39.07579 -15.79083,59.68107 -21.06257,42.64847 -59.33179,72.43181 -107.38639,83.57436 -7.10115,1.64656 -13.21967,2.16243 -29,2.44507 -11,0.19701 -22.59364,-0.0488 -25.76364,-0.54635 z M 36.212691,387.17381 C 0.96007777,327.62684 -8.7281544,260.09121 8.1943981,191.86129 l 3.1346829,-12.6387 1.727184,3.38777 c 4.800618,9.41613 17.510905,21.58293 25.693735,24.59507 l 3.25,1.19635 v 93.79911 C 42,353.7904 41.873531,396 41.718958,396 c -0.154573,0 -2.632394,-3.97179 -5.506267,-8.82619 z M 484.12383,255.5 l -0.052,-116 3.48915,7.43867 C 511.69976,198.40117 517.98582,255.16808 505.839,312 c -2.90438,13.58882 -11.13408,37.83118 -16.80408,49.5 l -4.8591,10 z M 380.5,139.12757 C 375.24336,133.02265 360.85598,121.01746 350.5144,114.10685 300.4442,80.648151 236.65496,76.230428 181.72656,102.41745 171.33293,107.3726 154.26265,118.35578 147,124.76086 l -4.5,3.96865 V 70.614753 c 0,-31.963114 0.225,-55.097602 0.5,-51.409972 l 0.5,6.704781 9,-4.084781 c 19.53386,-8.865726 46.64597,-16.4004137 72,-20.0094201 11.87888,-1.69089232 51.16487,-1.6637715 63.5,0.043837 40.5011,5.6067508 76.0323,18.8898591 109.74732,41.0283251 4.99054,3.276963 9.33039,5.701438 9.6441,5.387723 0.31371,-0.313714 -0.48112,1.633517 -1.76631,4.327182 -9.72709,20.38735 -17.16985,48.092192 -20.20011,75.192562 -0.84284,7.53775 -1.62076,13.95514 -1.72872,14.26086 -0.10795,0.30571 -1.54628,-1.01201 -3.19628,-2.92828 z M 0.07894737,133.41667 c 0.04798392,-1.16495 0.2849403,-1.4019 0.60416667,-0.60417 0.28887061,0.72187 0.25334429,1.58437 -0.0789474,1.91667 -0.33229167,0.33229 -0.56864035,-0.25834 -0.52521927,-1.3125 z M 39.5,127.29636 c -1.1,-0.26977 -2.39018,-0.85949 -2.867068,-1.31049 -0.909971,-0.86058 6.446012,-12.61304 15.325947,-24.48587 l 5.235446,-7 -0.45908,11.61195 c -0.499882,12.64402 -1.770655,16.31712 -6.620786,19.13704 -3.119322,1.81361 -7.848279,2.72576 -10.614459,2.04737 z m 55.962438,-0.3499 c -1.670659,-0.49145 -4.370659,-2.28453 -6,-3.98462 L 86.5,119.87077 85.744932,81.185383 C 85.329645,59.908422 85.118878,36.65 85.276561,29.5 c 0.157683,-7.15 0.384964,-2.254828 0.505068,10.878159 L 86,64.256319 89.25,61.620113 C 91.0375,60.170199 97,55.572043 102.5,51.401988 l 10,-7.581919 0.51398,-15.160035 C 113.29666,20.322015 113.36555,37.125 113.16706,66 c -0.32732,47.61673 -0.5204,52.72679 -2.07576,54.93821 -3.77646,5.36937 -9.85581,7.70647 -15.628862,6.00825 z M 483.07895,36.416667 c 0.048,-1.164943 0.28494,-1.4019 0.60416,-0.604167 0.28887,0.721875 0.25335,1.584375 -0.0789,1.916667 -0.33229,0.332291 -0.56864,-0.258334 -0.52522,-1.3125 z m -455.000003,-24 c 0.04798,-1.164943 0.284941,-1.4019 0.604167,-0.604167 0.288871,0.721875 0.253344,1.584375 -0.07895,1.916667 -0.332292,0.332291 -0.568641,-0.258334 -0.52522,-1.3125 z M 117.5,4 c 0.99549,-1.1 2.03498,-2 2.30998,-2 0.275,0 -0.31449,0.9 -1.30998,2 -0.99549,1.1 -2.03498,2 -2.30998,2 -0.275,0 0.31449,-0.9 1.30998,-2 z M 137.40499,3.75 135.5,1.5 l 2.25,1.9049876 c 1.2375,1.0477431 2.25,2.0602431 2.25,2.25 0,0.8002532 -0.80479,0.2094572 -2.59501,-1.9049876 z"
         id="path4" />
      <path
         style="fill:#cad4db"
         d="m 65.8125,511.31689 c 0.721875,-0.28887 1.584375,-0.25335 1.916667,0.0789 0.332291,0.33229 -0.258334,0.56864 -1.3125,0.52522 -1.164943,-0.048 -1.4019,-0.28494 -0.604167,-0.60416 z m 384,0 c 0.72187,-0.28887 1.58438,-0.25335 1.91667,0.0789 0.33229,0.33229 -0.25834,0.56864 -1.3125,0.52522 -1.16495,-0.048 -1.4019,-0.28494 -0.60417,-0.60416 z M 99.157895,485 c 0,-1.375 0.226973,-1.9375 0.504386,-1.25 0.277412,0.6875 0.277412,1.8125 0,2.5 -0.277413,0.6875 -0.504386,0.125 -0.504386,-1.25 z m 383.999995,0 c 0,-1.375 0.22698,-1.9375 0.50439,-1.25 0.27741,0.6875 0.27741,1.8125 0,2.5 -0.27741,0.6875 -0.50439,0.125 -0.50439,-1.25 z M 42.157895,482 c 0,-1.375 0.226973,-1.9375 0.504386,-1.25 0.277412,0.6875 0.277412,1.8125 0,2.5 -0.277413,0.6875 -0.504386,0.125 -0.504386,-1.25 z m 383.999995,0 c 0,-1.375 0.22698,-1.9375 0.50439,-1.25 0.27741,0.6875 0.27741,1.8125 0,2.5 -0.27741,0.6875 -0.50439,0.125 -0.50439,-1.25 z M 99.382798,406 c -0.08946,-64.47713 0.766992,-141.3035 1.449242,-130 0.72492,12.01066 7.32464,33.38844 15.28157,49.5 20.91112,42.3418 58.83872,72.05946 106.33771,83.31946 10.14123,2.40406 12.85557,2.6217 33.04868,2.64986 17.76582,0.0248 23.63593,-0.32554 30.5,-1.82016 14.26548,-3.10626 26.92091,-7.50929 39.5,-13.7427 50.25698,-24.90422 83.72215,-75.40754 86.17575,-130.05051 l 0.61265,-13.64406 5.34331,4.35219 c 2.93882,2.3937 6.24893,4.83686 7.3558,5.42924 1.99703,1.06877 2.01063,1.7856 1.77082,93.29186 L 426.51667,447.5 426,361 c -0.28417,-47.575 -0.63247,-84.925 -0.774,-83 -0.14154,1.925 -1.14313,7.69663 -2.22577,12.82584 C 403.56347,382.91123 313.22024,442.06741 221.18632,422.97233 171.51695,412.66698 127.69913,379.42156 104.58754,334.5066 l -4.57518,-8.89139 -0.262404,77.9424 L 99.487557,481.5 Z M 483.48202,375.5 c -5e-5,-58.3 0.12044,-82.29695 0.26775,-53.32656 0.14731,28.97039 0.14734,76.67039 8e-5,106 C 483.60259,457.50305 483.48206,433.8 483.48202,375.5 Z M 42.480142,303 c 0,-52.525 0.121332,-74.0125 0.269626,-47.75 0.148294,26.2625 0.148294,69.2375 0,95.5 -0.148294,26.2625 -0.269626,4.775 -0.269626,-47.75 z m 56.880354,-47 c 0,-5.225 0.168545,-7.3625 0.374543,-4.75 0.205999,2.6125 0.205999,6.8875 0,9.5 -0.205998,2.6125 -0.374543,0.475 -0.374543,-4.75 z M 407.40499,246.75 405.5,244.5 l 2.25,1.90499 c 1.2375,1.04774 2.25,2.06024 2.25,2.25 0,0.80025 -0.80479,0.20945 -2.59501,-1.90499 z M 100.13035,224 l -0.11353,-15.5 4.76753,-2.52196 4.76753,-2.52196 -1.71352,3.36097 c -1.85934,3.64698 -5.42256,17.87469 -6.75958,26.99057 -0.67257,4.58566 -0.85697,2.67884 -0.94843,-9.80762 z m 287.9486,-20.58333 c 0.048,-1.16495 0.28494,-1.4019 0.60416,-0.60417 0.28887,0.72187 0.25335,1.58437 -0.0789,1.91667 -0.33229,0.33229 -0.56864,-0.25834 -0.52522,-1.3125 z M 118,196.5 c 1.86578,-1.925 3.61733,-3.5 3.89233,-3.5 0.275,0 -1.02655,1.575 -2.89233,3.5 -1.86578,1.925 -3.61733,3.5 -3.89233,3.5 -0.275,0 1.02655,-1.575 2.89233,-3.5 z m 269.07895,1.91667 c 0.048,-1.16495 0.28494,-1.4019 0.60416,-0.60417 0.28887,0.72187 0.25335,1.58437 -0.0789,1.91667 -0.33229,0.33229 -0.56864,-0.25834 -0.52522,-1.3125 z M 483.4768,118.5 c -7e-5,-44.55 0.12269,-62.921066 0.27281,-40.824592 0.15012,22.096474 0.15018,58.546472 1.4e-4,81.000002 C 483.5997,181.12893 483.47687,163.05 483.4768,118.5 Z M 22.404988,195.75 20.5,193.5 l 2.25,1.90499 C 24.864445,197.19521 25.455241,198 24.654988,198 c -0.189757,0 -1.202257,-1.0125 -2.25,-2.25 z M 386.15789,193 c 0,-1.375 0.22698,-1.9375 0.50439,-1.25 0.27741,0.6875 0.27741,1.8125 0,2.5 -0.27741,0.6875 -0.50439,0.125 -0.50439,-1.25 z m -0.96294,-7.5 c 0.0204,-1.65 0.2445,-2.20394 0.49804,-1.23097 0.25354,0.97297 0.23687,2.32297 -0.0371,3 -0.27393,0.67703 -0.48137,-0.11903 -0.46099,-1.76903 z M 384.27236,174 c 0,-2.475 0.19502,-3.4875 0.43337,-2.25 0.23836,1.2375 0.23836,3.2625 0,4.5 -0.23835,1.2375 -0.43337,0.225 -0.43337,-2.25 z m -5.20383,-14.57122 c -6.64042,-8.8841 -21.49617,-23.07219 -32.13052,-30.68649 C 330.0741,116.66758 308.15644,107.17532 286,102.35084 c -6.86407,-1.49462 -12.73418,-1.84493 -30.5,-1.82016 -20.19311,0.0282 -22.90745,0.2458 -33.04868,2.64986 -29.11375,6.90164 -54.11019,20.31083 -74.95917,40.2114 -4.67196,4.45943 -8.29594,7.43306 -8.05329,6.60806 0.24265,-0.825 0.92011,-5.775 1.50546,-11 l 1.06427,-9.5 4.62515,-4.2796 c 6.87394,-6.36039 24.14877,-17.58539 35.09282,-22.80295 54.9284,-26.187022 118.71764,-21.769299 168.78784,11.6894 10.37493,6.9329 24.5821,18.79864 30.2356,25.25259 l 3.25,3.71015 v -3.70146 c 0,-2.03581 0.1804,-3.51396 0.4009,-3.2848 0.22049,0.22917 0.10799,6.90962 -0.25,14.84545 L 383.5,165.35756 Z M 1.1578947,141 c 0,-1.375 0.2269737,-1.9375 0.504386,-1.25 0.2774123,0.6875 0.2774123,1.8125 0,2.5 -0.2774123,0.6875 -0.504386,0.125 -0.504386,-1.25 z M 0.2521834,128.5 c 0.0110994,-2.2 0.21588425,-2.98225 0.45507747,-1.73834 0.23919321,1.24391 0.2301119,3.04391 -0.0201807,4 C 0.43678756,131.71775 0.24108402,130.7 0.2521834,128.5 Z M 385.15789,128 c 0,-1.375 0.22698,-1.9375 0.50439,-1.25 0.27741,0.6875 0.27741,1.8125 0,2.5 -0.27741,0.6875 -0.50439,0.125 -0.50439,-1.25 z M 44.8125,127.31689 c 0.721875,-0.28887 1.584375,-0.25335 1.916667,0.0789 0.332291,0.3323 -0.258334,0.56864 -1.3125,0.52522 -1.164943,-0.048 -1.4019,-0.28494 -0.604167,-0.60416 z m 57,0 c 0.72187,-0.28887 1.58437,-0.25335 1.91667,0.0789 0.33229,0.3323 -0.25834,0.56864 -1.3125,0.52522 -1.16495,-0.048 -1.4019,-0.28494 -0.60417,-0.60416 z M 88.924314,123.25 86.5,120.5 l 2.75,2.42431 c 1.5125,1.33338 2.75,2.57088 2.75,2.75 0,0.78428 -0.809799,0.14598 -3.075686,-2.42431 z M 109,123.5 c 1.29175,-1.375 2.57363,-2.5 2.84863,-2.5 0.275,0 -0.55688,1.125 -1.84863,2.5 -1.29175,1.375 -2.57363,2.5 -2.84863,2.5 -0.275,0 0.55688,-1.125 1.84863,-2.5 z M 386.15789,120 c 0,-1.375 0.22698,-1.9375 0.50439,-1.25 0.27741,0.6875 0.27741,1.8125 0,2.5 -0.27741,0.6875 -0.50439,0.125 -0.50439,-1.25 z M 56.157895,115 c 0,-1.375 0.226973,-1.9375 0.504386,-1.25 0.277412,0.6875 0.277412,1.8125 0,2.5 -0.277413,0.6875 -0.504386,0.125 -0.504386,-1.25 z M 85.436742,91 c 0,-14.575 0.139795,-20.5375 0.310654,-13.25 0.17086,7.2875 0.17086,19.2125 0,26.5 -0.170859,7.2875 -0.310654,1.325 -0.310654,-13.25 z M 113.45255,80.5 c 3.1e-4,-20.35 0.13365,-28.533068 0.29631,-18.184596 0.16266,10.348472 0.16241,26.998472 -5.6e-4,37 C 113.58533,109.31693 113.45224,100.85 113.45255,80.5 Z M 142.46053,72 c 0,-25.025 0.12983,-35.2625 0.28851,-22.75 0.15868,12.5125 0.15868,32.9875 0,45.5 -0.15868,12.5125 -0.28851,2.275 -0.28851,-22.75 z M 28.464717,65 c 0,-28.325 0.128036,-39.9125 0.284524,-25.75 0.156488,14.1625 0.156488,37.3375 0,51.5 -0.156488,14.1625 -0.284524,2.575 -0.284524,-25.75 z m 358.614233,48.41667 c 0.048,-1.16495 0.28494,-1.4019 0.60416,-0.60417 0.28887,0.72187 0.25335,1.58437 -0.0789,1.91667 -0.33229,0.33229 -0.56864,-0.25834 -0.52522,-1.3125 z m 1,-6 c 0.048,-1.16495 0.28494,-1.4019 0.60416,-0.60417 0.28887,0.72187 0.25335,1.58437 -0.0789,1.91667 -0.33229,0.33229 -0.56864,-0.25834 -0.52522,-1.3125 z M 426,18.622445 c 0,-0.207656 0.7875,-0.995156 1.75,-1.75 1.58606,-1.243871 1.62143,-1.208501 0.37756,0.377555 C 426.82119,18.915748 426,19.445479 426,18.622445 Z M 85.078947,15.416667 c 0.04798,-1.164943 0.284941,-1.4019 0.604167,-0.604167 0.288871,0.721875 0.253344,1.584375 -0.07895,1.916667 -0.332292,0.332291 -0.568641,-0.258334 -0.52522,-1.3125 z M 23.872445,4.25 C 22.628574,2.6639444 22.663944,2.6285741 24.25,3.8724447 25.2125,4.6272893 26,5.4147893 26,5.6224447 26,6.4454789 25.178814,5.915748 23.872445,4.25 Z"
         id="path3" />
      <path
         style="fill:#98a9b4"
         d="M 63.803211,510.65629 C 54.331668,507.99419 46.568478,500.30481 43.993084,491.03452 43.373435,488.80405 42.989249,436.03181 42.951783,348 l -0.05937,-139.5 -5.89458,-2.8819 C 15.850776,195.27915 4.1826965,171.58701 1.0396962,132.60478 -0.08543803,118.64989 -0.41512882,16.325644 0.64791667,11.010417 1.5751389,6.3743054 6.9736,1.3492048 11.925776,0.51254002 16.820477,-0.31441436 22.306075,2.0444856 25.435466,6.3219358 27.446567,9.0708357 27.512941,10.559019 28,63.821936 L 28.5,118.5 l 2.398656,3.36314 c 6.267751,8.78797 19.502705,7.76445 24.34979,-1.88307 1.597861,-3.18035 1.74858,-7.98287 1.75,-55.762189 0.0017,-56.570397 0.01529,-56.7237224 5.409812,-60.9670564 6.326299,-4.9762681 15.705676,-3.29355374 20.328545,3.6470586 L 85,10.295766 85.0016,63.397883 c 0.0014,48.579517 0.150466,53.394147 1.75,56.531037 2.429679,4.76489 6.263056,7.27242 11.923954,7.79983 3.891746,0.36258 5.501176,-0.007 8.324496,-1.90957 7.18202,-4.84078 6.99653,-3.20263 7,-61.81918 0.003,-48.004404 0.15283,-52.793619 1.75155,-55.9289151 2.67323,-5.2425293 6.52978,-7.58400235 12.34886,-7.49750746 5.80286,0.086254 9.54737,2.39728216 12.14804,7.49750746 1.60769,3.1528811 1.747,8.2590201 1.73047,63.4289151 -0.0137,45.68929 -0.35212,62.50963 -1.41895,70.52204 -4.16129,31.2532 -14.90277,51.72537 -32.64108,62.21059 -3.47305,2.05294 -6.69344,3.85889 -7.15641,4.01321 -0.46297,0.15432 -1.07358,63.27464 -1.356903,140.26737 -0.44405,120.67015 -0.722005,140.63127 -2.014325,144.65731 -4.19499,13.0689 -20.009932,21.30208 -33.588045,17.48577 z m 383.999999,0 c -9.47154,-2.6621 -17.23473,-10.35148 -19.81013,-19.62177 -0.61554,-2.21569 -0.98401,-45.34461 -0.9875,-115.58766 L 427,263.39372 l -6.01537,-4.24215 c -6.94418,-4.89717 -15.57745,-14.8967 -20.65264,-23.92102 -17.97342,-31.959 -21.22737,-91.53536 -7.85023,-143.72942 12.12925,-47.325087 38.42455,-87.4373736 59.67213,-91.02712973 9.3168,-1.57406247 19.98641,4.94913173 25.32418,15.48271373 6.04954,11.938203 5.70528,-2.94387 5.67539,245.345326 -0.0305,253.37539 0.60098,232.15111 -7.16975,240.97913 -6.71276,7.6261 -18.44249,11.11212 -28.1805,8.37512 z"
         id="path2" />
    </g>
  </g>
</svg>
